<svg xmlns="http://www.w3.org/2000/svg" width="97" height="93" viewBox="0 0 97 93">
  <g id="Group_41" data-name="Group 41" transform="translate(1239 -2418)">
    <rect id="Rectangle_193" data-name="Rectangle 193" width="97" height="93" transform="translate(-1239 2418)" fill="none"/>
    <g id="Group_40" data-name="Group 40">
      <g id="Group_39" data-name="Group 39">
        <g id="facial-recognition" transform="translate(-1213 2433.523)">
          <g id="Group_3" data-name="Group 3" transform="translate(0 0)">
            <g id="Group_2" data-name="Group 2">
              <path id="Path_10" data-name="Path 10" d="M.78,10.924a.78.78,0,0,0,.78-.78V2.34a.781.781,0,0,1,.78-.78h7.8a.78.78,0,1,0,0-1.561h-7.8A2.344,2.344,0,0,0,0,2.34v7.8a.78.78,0,0,0,.78.78Z" transform="translate(0 0.001)" fill="#1769ff"/>
              <path id="Path_11" data-name="Path 11" d="M401.118,0h-7.8a.78.78,0,1,0,0,1.561h7.8a.781.781,0,0,1,.78.78v7.8a.78.78,0,1,0,1.561,0v-7.8A2.344,2.344,0,0,0,401.118,0Z" transform="translate(-356.637 0)" fill="#1769ff"/>
              <path id="Path_12" data-name="Path 12" d="M402.68,392.533a.78.78,0,0,0-.78.78v7.8a.781.781,0,0,1-.78.78h-7.8a.78.78,0,0,0,0,1.561h7.8a2.343,2.343,0,0,0,2.341-2.341v-7.8a.78.78,0,0,0-.78-.78Z" transform="translate(-356.637 -356.636)" fill="#1769ff"/>
              <path id="Path_13" data-name="Path 13" d="M10.144,401.9H2.34a.781.781,0,0,1-.78-.78v-7.8a.78.78,0,0,0-1.561,0v7.8a2.344,2.344,0,0,0,2.341,2.341h7.8a.78.78,0,0,0,0-1.561Z" transform="translate(0.001 -356.637)" fill="#1769ff"/>
              <path id="Path_14" data-name="Path 14" d="M46.042,38.086h-7.9a12.916,12.916,0,0,0-.923-4.393c-1.6-3.253-6.324-8.093-12.767-8.093H22.374c-6.443,0-11.165,4.839-12.767,8.093a12.913,12.913,0,0,0-.923,4.394H.78a.78.78,0,1,0,0,1.561H8.6c-.017.572-.022,1.136-.018,1.678a2.634,2.634,0,0,0-.435-.1,2.41,2.41,0,0,0-2.022.707,3.236,3.236,0,0,0-.592,2.778,18.682,18.682,0,0,0,.877,3.075l.133.382c.093.267.171.553.251.836A6.821,6.821,0,0,0,7.7,51.208a2.073,2.073,0,0,0,1.513.922c.037,0,.077,0,.118,0s.071-.007.106-.009c.052.713.086,1.353.086,1.82,0,2.669,2.511,5.932,4,7.439a33.823,33.823,0,0,0,2.7,2.353A32.352,32.352,0,0,1,18.8,65.977a5.419,5.419,0,0,0,3.573,1.763h2.074a5.419,5.419,0,0,0,3.573-1.764,32.62,32.62,0,0,1,2.576-2.24,33.739,33.739,0,0,0,2.7-2.355c1.484-1.507,3.995-4.77,3.995-7.439,0-.467.034-1.107.086-1.82.034,0,.073.009.106.009s.081,0,.118,0A2.076,2.076,0,0,0,39.12,51.2a6.819,6.819,0,0,0,.9-2.2c.079-.284.158-.568.251-.836l.133-.382a18.643,18.643,0,0,0,.876-3.073,3.234,3.234,0,0,0-.594-2.781,2.4,2.4,0,0,0-2.019-.706,2.636,2.636,0,0,0-.434.1c0-.542,0-1.106-.018-1.678h7.823a.78.78,0,1,0,0-1.561ZM8.97,50.294A5.611,5.611,0,0,1,8.3,48.582c-.089-.316-.176-.629-.279-.927l-.135-.386a17.242,17.242,0,0,1-.812-2.821,1.867,1.867,0,0,1,.156-1.411.887.887,0,0,1,.744-.262,1.189,1.189,0,0,1,.65.313c.053,1.4.141,2.4.152,2.53,0,.039.314,2.565.533,4.951a.619.619,0,0,1-.342-.275ZM10.2,42.547c-.01-.015-.023-.027-.033-.042-.025-.9-.03-1.882,0-2.859h1.538v2.539l-1.5.374s0-.008-.006-.013Zm2.285,15.031a7.5,7.5,0,0,1-1.4-3.635c0-.725-.071-1.806-.17-2.955a.76.76,0,0,0-.012-.138c-.164-1.875-.4-3.89-.508-4.842l2.089,2.506ZM10.777,44.026l1.757-.439,5.521.689.53,3.173H13.631Zm2.489-1.919v-2.46H15.9l1.48,2.974Zm4.381-2.46h3.887l-2.591,2.606Zm-3.6,10.3,4.4,3.854-1.673,2.23H14.047Zm1.068,10.8c-.167-.155-.331-.309-.481-.461-.186-.189-.384-.4-.588-.636V57.6h2.733l1.482,1.976Zm4.8,4.132a33.778,33.778,0,0,0-2.706-2.356c-.25-.2-.5-.407-.749-.613l2.7-1.009,2.906,5.23a4.256,4.256,0,0,1-2.146-1.252Zm2.717-.932-1.8-3.231h1.8Zm0-4.793H19.9l-1.755-2.341L19.9,54.473h2.732Zm0-6.243H19.8l-4.459-3.9h3.964l3.323,1.328v2.574Zm0-4.255-2.424-.969-.642-3.849,3.066-3.084ZM10.25,38.086a11.165,11.165,0,0,1,.758-3.7c1.375-2.792,5.676-7.221,11.366-7.221h2.074c5.691,0,9.992,4.429,11.366,7.221a11.177,11.177,0,0,1,.758,3.7Zm23.306,1.561v2.46l-4.117.514,1.48-2.974ZM24.192,52.913V50.339l3.323-1.328h3.964l-4.459,3.9Zm4.487,3.9-1.755,2.341H24.192V54.474h2.732Zm-4.487-8.157v-7.9l3.066,3.084-.642,3.849Zm1.1-9.012h3.887l-1.3,2.606Zm-1.1,24.3V60.717h1.8Zm5.422-1.423h0a33.9,33.9,0,0,0-2.7,2.355,4.258,4.258,0,0,1-2.146,1.253L27.668,60.9l2.7,1.009C30.114,62.118,29.863,62.322,29.613,62.525Zm3.163-2.874c-.2.232-.4.447-.587.635-.15.153-.315.307-.481.462l-3.145-1.178L30.044,57.6h2.732Zm0-3.617H30.044L28.371,53.8l4.4-3.854v6.084Zm.415-8.584H28.238l.53-3.173,5.521-.689,1.757.439Zm2.727,3.4a.758.758,0,0,0-.012.139c-.1,1.15-.17,2.23-.17,2.955a7.5,7.5,0,0,1-1.4,3.634V48.514l2.089-2.506c-.115.967-.345,2.975-.509,4.841Zm.737-8.345c-.01.015-.024.027-.033.042s0,.009-.005.013l-1.5-.374v-2.54h1.538c.029.978.024,1.959,0,2.858Zm2.193.269h0a.888.888,0,0,1,.742.26,1.86,1.86,0,0,1,.158,1.415,17.2,17.2,0,0,1-.811,2.819l-.135.386c-.1.3-.191.612-.279.927a5.619,5.619,0,0,1-.666,1.709.624.624,0,0,1-.344.278c.22-2.389.53-4.921.536-4.977.01-.117.1-1.112.15-2.5a1.191,1.191,0,0,1,.648-.312Z" transform="translate(0 -23.259)" fill="#1769ff"/>
            </g>
          </g>
        </g>
        <text id="Face_REST_API" data-name="Face REST API" transform="translate(-1219 2493)" fill="#334564" font-size="9" font-family="Roboto-Bold, Roboto" font-weight="700"><tspan x="0" y="0">Face REST API</tspan></text>
      </g>
    </g>
  </g>
</svg>
