<svg xmlns="http://www.w3.org/2000/svg" width="263.368" height="266.992" viewBox="0 0 263.368 266.992">
  <g id="Group_5" data-name="Group 5" transform="translate(-175 -155)">
    <rect id="Rectangle_1495" data-name="Rectangle 1495" width="263.368" height="266.992" rx="7" transform="translate(175 155)" fill="#e4e4e4"/>
    <g id="user" transform="translate(265.371 246.418)">
      <g id="Group_533" data-name="Group 533" transform="translate(-6.371 -6.418)">
        <path id="Path_144" data-name="Path 144" d="M81.955,62.534A47.776,47.776,0,0,0,63.712,51.008,28.068,28.068,0,0,0,74.521,19.672a27.7,27.7,0,0,0-53.022,0A28.068,28.068,0,0,0,32.309,51.008,48.415,48.415,0,0,0,0,96.726H7.5a40.508,40.508,0,1,1,81.014,0h7.5a48.226,48.226,0,0,0-14.06-34.192ZM48.008,48.365a20.4,20.4,0,1,1,20.255-20.4A20.33,20.33,0,0,1,48.008,48.365Z" transform="translate(0 0.008)" fill="#bcbcbc"/>
      </g>
    </g>
  </g>
</svg>
